<svg width="496" height="481" viewBox="0 0 496 481" fill="none" xmlns="http://www.w3.org/2000/svg">
<path d="M25.3615 2.50001C37.6943 2.50001 47.7498 12.3729 47.7498 24.6224C47.7498 36.8718 37.6943 46.7447 25.3615 46.7447C13.0286 46.7447 2.97314 36.8718 2.97314 24.6224C2.97314 12.3729 13.0286 2.50001 25.3615 2.50001Z" fill="white" stroke="black" stroke-width="5" stroke-linejoin="round"/>
<mask id="path-2-outside-1_550_1430" maskUnits="userSpaceOnUse" x="45.2495" y="21.649" width="209" height="460" fill="black">
<rect fill="white" x="45.2495" y="21.649" width="209" height="460"/>
<path d="M45.2495 36.649H219C230.046 36.649 239 45.6033 239 56.649V481H45.2495V36.649Z"/>
</mask>
<path d="M45.2495 21.649H219C238.33 21.649 254 37.319 254 56.649H224C224 53.8875 221.762 51.649 219 51.649H45.2495V21.649ZM239 481H45.2495H239ZM45.2495 481V36.649V481ZM219 21.649C238.33 21.649 254 37.319 254 56.649V481H224V56.649C224 53.8875 221.762 51.649 219 51.649V21.649Z" fill="black" mask="url(#path-2-outside-1_550_1430)"/>
<mask id="path-4-outside-2_550_1430" maskUnits="userSpaceOnUse" x="94.6211" y="64.7995" width="124" height="417" fill="black">
<rect fill="white" x="94.6211" y="64.7995" width="124" height="417"/>
<path d="M94.6211 76.7995H186.621C197.667 76.7995 206.621 85.7538 206.621 96.7995V481H94.6211V76.7995Z"/>
</mask>
<path d="M94.6211 64.7995H186.621C204.294 64.7995 218.621 79.1264 218.621 96.7995H194.621C194.621 92.3812 191.039 88.7995 186.621 88.7995H94.6211V64.7995ZM206.621 481H94.6211H206.621ZM94.6211 481V76.7995V481ZM186.621 64.7995C204.294 64.7995 218.621 79.1264 218.621 96.7995V481H194.621V96.7995C194.621 92.3812 191.039 88.7995 186.621 88.7995V64.7995Z" fill="black" mask="url(#path-4-outside-2_550_1430)"/>
<path d="M80.5874 51.5C89.7806 51.5 97.2017 59.0028 97.2017 68.219C97.2017 77.4352 89.7806 84.938 80.5874 84.938C71.3942 84.938 63.9731 77.4352 63.9731 68.219C63.9731 59.0028 71.3942 51.5 80.5874 51.5Z" fill="white" stroke="black" stroke-width="5"/>
<mask id="path-7-outside-3_550_1430" maskUnits="userSpaceOnUse" x="44.4731" y="103.131" width="149" height="378" fill="black">
<rect fill="white" x="44.4731" y="103.131" width="149" height="378"/>
<path d="M44.4731 118.131H158.473C169.519 118.131 178.473 127.085 178.473 138.131V481H44.4731V118.131Z"/>
</mask>
<path d="M44.4731 103.131H158.473C177.803 103.131 193.473 118.801 193.473 138.131H163.473C163.473 135.369 161.235 133.131 158.473 133.131H44.4731V103.131ZM178.473 481H44.4731H178.473ZM44.4731 481V118.131V481ZM158.473 103.131C177.803 103.131 193.473 118.801 193.473 138.131V481H163.473V138.131C163.473 135.369 161.235 133.131 158.473 133.131V103.131Z" fill="black" mask="url(#path-7-outside-3_550_1430)"/>
<path d="M30.19 95.5C38.9398 95.5 46.1627 102.401 46.1627 111.072C46.1627 119.742 38.9398 126.644 30.19 126.644C21.4403 126.644 14.2173 119.742 14.2173 111.072C14.2173 102.401 21.4403 95.5 30.19 95.5Z" fill="white" stroke="black" stroke-width="5"/>
<path d="M471.112 2.50001C458.779 2.50001 448.723 12.3729 448.723 24.6224C448.723 36.8718 458.779 46.7447 471.112 46.7447C483.445 46.7447 493.5 36.8718 493.5 24.6224C493.5 12.3729 483.445 2.50001 471.112 2.50001Z" fill="white" stroke="black" stroke-width="5" stroke-linejoin="round"/>
<mask id="path-11-outside-4_550_1430" maskUnits="userSpaceOnUse" x="242.224" y="21.649" width="209" height="460" fill="black">
<rect fill="white" x="242.224" y="21.649" width="209" height="460"/>
<path d="M451.224 36.649H277.473C266.427 36.649 257.473 45.6033 257.473 56.649V481H451.224V36.649Z"/>
</mask>
<path d="M451.224 21.649H277.473C258.143 21.649 242.473 37.319 242.473 56.649H272.473C272.473 53.8875 274.712 51.649 277.473 51.649H451.224V21.649ZM257.473 481H451.224H257.473ZM451.224 481V36.649V481ZM277.473 21.649C258.143 21.649 242.473 37.319 242.473 56.649V481H272.473V56.649C272.473 53.8875 274.712 51.649 277.473 51.649V21.649Z" fill="black" mask="url(#path-11-outside-4_550_1430)"/>
<mask id="path-13-outside-5_550_1430" maskUnits="userSpaceOnUse" x="277.852" y="64.7995" width="124" height="417" fill="black">
<rect fill="white" x="277.852" y="64.7995" width="124" height="417"/>
<path d="M401.852 76.7995H309.852C298.806 76.7995 289.852 85.7538 289.852 96.7995V481H401.852V76.7995Z"/>
</mask>
<path d="M401.852 64.7995H309.852C292.179 64.7995 277.852 79.1264 277.852 96.7995H301.852C301.852 92.3812 305.434 88.7995 309.852 88.7995H401.852V64.7995ZM289.852 481H401.852H289.852ZM401.852 481V76.7995V481ZM309.852 64.7995C292.179 64.7995 277.852 79.1264 277.852 96.7995V481H301.852V96.7995C301.852 92.3812 305.434 88.7995 309.852 88.7995V64.7995Z" fill="black" mask="url(#path-13-outside-5_550_1430)"/>
<path d="M415.886 51.5C406.693 51.5 399.271 59.0028 399.271 68.219C399.271 77.4352 406.693 84.938 415.886 84.938C425.079 84.938 432.5 77.4352 432.5 68.219C432.5 59.0028 425.079 51.5 415.886 51.5Z" fill="white" stroke="black" stroke-width="5"/>
<mask id="path-16-outside-6_550_1430" maskUnits="userSpaceOnUse" x="303" y="103.131" width="149" height="378" fill="black">
<rect fill="white" x="303" y="103.131" width="149" height="378"/>
<path d="M452 118.131H338C326.954 118.131 318 127.085 318 138.131V481H452V118.131Z"/>
</mask>
<path d="M452 103.131H338C318.67 103.131 303 118.801 303 138.131H333C333 135.369 335.239 133.131 338 133.131H452V103.131ZM318 481H452H318ZM452 481V118.131V481ZM338 103.131C318.67 103.131 303 118.801 303 138.131V481H333V138.131C333 135.369 335.239 133.131 338 133.131V103.131Z" fill="black" mask="url(#path-16-outside-6_550_1430)"/>
<path d="M466.283 95.5C457.533 95.5 450.31 102.401 450.31 111.072C450.31 119.742 457.533 126.644 466.283 126.644C475.033 126.644 482.256 119.742 482.256 111.072C482.256 102.401 475.033 95.5 466.283 95.5Z" fill="white" stroke="black" stroke-width="5"/>
</svg>
